<svg width="1024" height="1024" viewBox="0 0 1024 1024" fill="none" xmlns="http://www.w3.org/2000/svg">
<path d="M514 475.4V725ZM514 475.4C514 417.155 514 388.032 499.224 365.785C486.228 346.216 465.491 330.306 439.985 320.335C410.988 309 373.029 309 297.111 309H263.222C244.243 309 234.753 309 227.504 311.834C221.127 314.327 215.943 318.304 212.694 323.196C209 328.758 209 336.039 209 350.6V631.4C209 645.963 209 653.243 212.694 658.804C215.943 663.697 221.127 667.673 227.504 670.166C234.753 673 244.243 673 263.222 673H363.082C381.388 673 390.541 673 399.393 674.212C407.248 675.285 414.912 677.064 422.226 679.516C430.465 682.274 438.081 686.169 453.312 693.961L514 725M514 475.4C514 417.155 514 388.032 528.776 365.785C541.772 346.216 562.509 330.306 588.013 320.335C617.012 309 654.971 309 730.889 309H764.778C783.759 309 793.248 309 800.497 311.834C806.875 314.327 812.056 318.304 815.306 323.196C819 328.758 819 336.039 819 350.6V631.4C819 645.963 819 653.243 815.306 658.804C812.056 663.697 806.875 667.673 800.497 670.166C793.248 673 783.759 673 764.778 673H664.917C646.611 673 637.457 673 628.609 674.212C620.75 675.285 613.088 677.064 605.775 679.516C597.536 682.274 589.918 686.169 574.688 693.961L514 725" fill="#FFE1CC" style="fill:#FFE1CC;fill:color(display-p3 1.0000 0.8827 0.7990);fill-opacity:1;"/>
<path d="M514 475.4V725M514 475.4C514 417.155 514 388.032 499.224 365.785C486.228 346.216 465.491 330.306 439.985 320.335C410.988 309 373.029 309 297.111 309H263.222C244.243 309 234.753 309 227.504 311.834C221.127 314.327 215.943 318.304 212.694 323.196C209 328.758 209 336.039 209 350.6V631.4C209 645.963 209 653.243 212.694 658.804C215.943 663.697 221.127 667.673 227.504 670.166C234.753 673 244.243 673 263.222 673H363.082C381.388 673 390.541 673 399.393 674.212C407.248 675.285 414.912 677.064 422.226 679.516C430.465 682.274 438.081 686.169 453.312 693.961L514 725M514 475.4C514 417.155 514 388.032 528.776 365.785C541.772 346.216 562.509 330.306 588.013 320.335C617.012 309 654.971 309 730.889 309H764.778C783.759 309 793.248 309 800.497 311.834C806.875 314.327 812.056 318.304 815.306 323.196C819 328.758 819 336.039 819 350.6V631.4C819 645.963 819 653.243 815.306 658.804C812.056 663.697 806.875 667.673 800.497 670.166C793.248 673 783.759 673 764.778 673H664.917C646.611 673 637.457 673 628.609 674.212C620.75 675.285 613.088 677.064 605.775 679.516C597.536 682.274 589.918 686.169 574.688 693.961L514 725" stroke="black" style="stroke:black;stroke-opacity:1;" stroke-width="15" stroke-linecap="round" stroke-linejoin="round"/>
</svg>
