<svg width="1024" height="1024" viewBox="0 0 1024 1024" fill="none" xmlns="http://www.w3.org/2000/svg">
<path d="M512 474V699ZM512 474C512 421.495 512 395.243 499.501 375.188C488.508 357.548 470.967 343.206 449.391 334.218C424.862 324 392.753 324 328.533 324H299.867C283.812 324 275.784 324 269.652 326.554C264.258 328.802 259.873 332.387 257.124 336.797C254 341.811 254 348.374 254 361.5V614.625C254 627.752 254 634.315 257.124 639.328C259.873 643.739 264.258 647.323 269.652 649.57C275.784 652.125 283.812 652.125 299.867 652.125H384.338C399.824 652.125 407.566 652.125 415.053 653.217C421.699 654.185 428.182 655.788 434.368 657.998C441.338 660.485 447.78 663.996 460.664 671.02L512 699M512 474C512 421.495 512 395.243 524.499 375.188C535.492 357.548 553.033 343.206 574.608 334.218C599.138 324 631.248 324 695.467 324H724.133C740.19 324 748.216 324 754.348 326.554C759.743 328.802 764.126 332.387 766.875 336.797C770 341.811 770 348.374 770 361.5V614.625C770 627.752 770 634.315 766.875 639.328C764.126 643.739 759.743 647.323 754.348 649.57C748.216 652.125 740.19 652.125 724.133 652.125H639.661C624.176 652.125 616.433 652.125 608.948 653.217C602.3 654.185 595.818 655.788 589.632 657.998C582.663 660.485 576.219 663.996 563.336 671.02L512 699" fill="white" style="fill:white;fill-opacity:1;"/>
<path d="M512 474V699M512 474C512 421.495 512 395.243 499.501 375.188C488.508 357.548 470.967 343.206 449.391 334.218C424.862 324 392.753 324 328.533 324H299.867C283.812 324 275.784 324 269.652 326.554C264.258 328.802 259.873 332.387 257.124 336.797C254 341.811 254 348.374 254 361.5V614.625C254 627.752 254 634.315 257.124 639.328C259.873 643.739 264.258 647.323 269.652 649.57C275.784 652.125 283.812 652.125 299.867 652.125H384.338C399.824 652.125 407.566 652.125 415.053 653.217C421.699 654.185 428.182 655.788 434.368 657.998C441.338 660.485 447.78 663.996 460.664 671.02L512 699M512 474C512 421.495 512 395.243 524.499 375.188C535.492 357.548 553.033 343.206 574.608 334.218C599.138 324 631.248 324 695.467 324H724.133C740.19 324 748.216 324 754.348 326.554C759.743 328.802 764.126 332.387 766.875 336.797C770 341.811 770 348.374 770 361.5V614.625C770 627.752 770 634.315 766.875 639.328C764.126 643.739 759.743 647.323 754.348 649.57C748.216 652.125 740.19 652.125 724.133 652.125H639.661C624.176 652.125 616.433 652.125 608.948 653.217C602.3 654.185 595.818 655.788 589.632 657.998C582.663 660.485 576.219 663.996 563.336 671.02L512 699" stroke="black" style="stroke:black;stroke-opacity:1;" stroke-width="15" stroke-linecap="round" stroke-linejoin="round"/>
</svg>
